<svg width="49" height="27" viewBox="0 0 49 27" fill="none" xmlns="http://www.w3.org/2000/svg">
<path fill-rule="evenodd" clip-rule="evenodd" d="M22.4702 10.4039C21.6687 11.3996 19.8445 12.2054 18.3311 12.2322C16.9011 12.2577 16.5155 11.9289 16.9065 11.0176C17.0152 10.7642 17.0806 10.5136 17.0516 10.4606C16.9375 10.2514 16.2961 10.8059 16.1987 11.1981C16.0541 11.7796 16.1596 12.1325 16.5766 12.462C17.3894 13.1044 20.5199 12.5969 22.2281 11.5456C23.0772 11.0231 23.0272 11.0283 23.311 11.4286L23.5359 11.7458L22.9202 12.4814L22.3043 13.217H19.5642C17.0978 13.217 16.7698 13.1826 16.2798 12.8736C15.9804 12.6848 15.6078 12.3921 15.4521 12.2234C15.1864 11.9358 15.1577 11.9351 14.9901 12.2132C14.8919 12.3762 14.5591 12.6687 14.2508 12.8633C13.7097 13.2045 13.4491 13.217 6.82958 13.217C0.347608 13.217 -0.0290505 13.234 0.00149725 13.5251C0.0318528 13.8143 0.470664 13.8388 7.14111 13.9214L14.2485 14.0094L14.6502 14.4032C14.8711 14.6196 15.0792 14.8776 15.1124 14.9762C15.1489 15.0846 15.294 14.9879 15.4791 14.7318C16.0084 13.9997 16.3887 13.9233 19.5093 13.9224L22.4647 13.9214L23.0013 14.5746L23.5378 15.2277L23.3162 15.5567C23.0745 15.9154 22.9664 15.8969 22.1709 15.3605C21.5351 14.9319 20.1606 14.4717 18.9075 14.2681C17.8734 14.1003 16.6857 14.3085 16.3454 14.7174C15.9455 15.1978 16.1451 16.2944 16.65 16.3907C17.065 16.47 17.1026 16.4018 16.9025 15.9353C16.5722 15.1656 16.6844 14.9963 17.7116 14.7137C18.3026 14.5511 20.0553 14.9359 20.9977 15.4352C21.7375 15.827 22.2094 16.2319 22.7663 16.9521C22.8983 17.123 23.0215 17.0444 23.4613 16.5092C23.7552 16.1514 24.0185 15.8585 24.0463 15.8585C24.0741 15.8585 24.3201 16.1463 24.593 16.498C25.0354 17.068 25.1108 17.1119 25.2885 16.903C25.9153 16.1662 26.5376 15.6669 27.2321 15.3436C28.7628 14.6309 30.755 14.4992 31.1798 15.0824C31.3383 15.3001 31.3385 15.3424 31.1839 15.8497L31.0202 16.3868H31.2855C31.5877 16.3868 31.854 16.0716 31.8805 15.6824C31.9468 14.7116 31.79 14.5089 30.797 14.2801C29.5059 13.9827 26.6327 14.6999 25.5718 15.5845L25.0794 15.995L24.8098 15.6007L24.5401 15.2066L25.0607 14.564L25.5812 13.9214L28.6085 13.9216L31.6357 13.9217L32.2356 14.4419L32.8354 14.9622L33.3362 14.4858L33.8369 14.0094L40.9255 13.9621C47.919 13.9154 48.0142 13.9101 48.0142 13.5658C48.0142 13.2214 47.9287 13.217 41.2089 13.217C34.6444 13.217 34.3836 13.2045 33.8428 12.8633C33.5344 12.6687 33.2017 12.3762 33.1034 12.2132C32.9359 11.9351 32.9072 11.9358 32.6414 12.2234C32.4857 12.3921 32.1132 12.6848 31.8138 12.8736C31.3231 13.1831 30.9954 13.217 28.4934 13.217H25.7173L25.1406 12.499C24.6768 11.9217 24.5855 11.7333 24.6743 11.5373C24.8771 11.0889 25.1245 11.0896 25.8565 11.5401C27.5228 12.5654 30.5315 13.0791 31.4335 12.4919C32.075 12.0744 32.0809 10.9611 31.4437 10.5756C31.2516 10.4593 31.0744 10.401 31.0499 10.446C31.0253 10.4909 31.0823 10.78 31.1764 11.0886C31.3406 11.6267 31.3406 11.6591 31.1758 11.8851C30.4539 12.8757 26.9135 11.9272 25.59 10.3885L25.1369 9.86182L24.5743 10.4882L24.0118 11.1146L23.4815 10.4928C23.1899 10.1508 22.9384 9.87238 22.9227 9.87414C22.9069 9.8759 22.7033 10.1144 22.4702 10.4039ZM24.8214 13.5509C24.7963 13.6255 24.6048 13.9038 24.396 14.169L24.0163 14.6513L23.5993 14.0975C23.3699 13.7928 23.1895 13.5001 23.1985 13.4468C23.2074 13.3936 23.3983 13.1271 23.6227 12.8549L24.0306 12.3597L24.4489 12.8873C24.6791 13.1775 24.8467 13.4762 24.8214 13.5509Z" fill="white"/>
<path fill-rule="evenodd" clip-rule="evenodd" d="M45.7394 0.276235C45.5913 0.482414 45.1165 0.833914 44.6842 1.05711C43.9903 1.41566 43.8984 1.50472 43.8984 1.81897C43.8984 2.09505 43.9481 2.17492 44.1195 2.17492C44.4206 2.17492 45.2509 2.71942 45.6435 3.17408L45.9652 3.54674L46.3462 3.09437C46.5572 2.84374 47.0177 2.5206 47.378 2.37006C47.9361 2.13706 48.0288 2.05106 48.0291 1.7667C48.0294 1.49261 47.9251 1.37749 47.4278 1.10325C46.7803 0.746231 46.3583 0.416498 46.1436 0.0997948C46.0311 -0.066068 45.9644 -0.0369424 45.7394 0.276235Z" fill="white"/>
<path fill-rule="evenodd" clip-rule="evenodd" d="M1.841 23.6985C1.69282 23.9047 1.21802 24.2562 0.785793 24.4794C0.0918704 24.8379 0 24.927 0 25.2412C0 25.5173 0.0496621 25.5972 0.2211 25.5972C0.522126 25.5972 1.35246 26.1417 1.74509 26.5963L2.06677 26.969L2.44781 26.5166C2.65876 26.266 3.11928 25.9428 3.47958 25.7923C4.03763 25.5593 4.1304 25.4733 4.13067 25.1889C4.13093 24.9149 4.02667 24.7997 3.52933 24.5255C2.88184 24.1685 2.45985 23.8387 2.24512 23.522C2.13269 23.3562 2.06596 23.3853 1.841 23.6985Z" fill="white"/>
<path fill-rule="evenodd" clip-rule="evenodd" d="M11.9357 1.50818C0.0801157 1.55327 0 1.55591 0 1.90512C0 2.25487 0.0736809 2.25663 14.8257 2.25663C22.9799 2.25663 33.6788 2.20397 38.6011 2.13952C47.1954 2.02716 47.5507 2.00955 47.5507 1.69926C47.5507 1.34282 50.8122 1.36026 11.9357 1.50818Z" fill="white"/>
<path fill-rule="evenodd" clip-rule="evenodd" d="M12.3185 24.754C0.462928 24.7991 0.382812 24.8018 0.382812 25.151C0.382812 25.5007 0.456493 25.5025 15.2085 25.5025C23.3627 25.5025 34.0616 25.4498 38.9839 25.3854C47.5782 25.273 47.9335 25.2554 47.9335 24.9451C47.9335 24.5887 51.195 24.6061 12.3185 24.754Z" fill="white"/>
</svg>
