<svg width="25" height="24" viewBox="0 0 25 24" fill="none" xmlns="http://www.w3.org/2000/svg">
<path fill-rule="evenodd" clip-rule="evenodd" d="M11.2279 9.2585C10.8273 10.1446 9.91587 10.8617 9.15963 10.8855C8.4451 10.9083 8.25243 10.6157 8.44779 9.80466C8.50212 9.57914 8.53476 9.35613 8.52032 9.30896C8.46329 9.12278 8.1428 9.61628 8.09412 9.96529C8.02188 10.4828 8.07459 10.7968 8.28296 11.0901C8.68908 11.6618 10.2533 11.2101 11.1069 10.2745C11.5312 9.80952 11.5062 9.81422 11.648 10.1704L11.7604 10.4527L11.4527 11.1073L11.145 11.7619H9.7758C8.5434 11.7619 8.37948 11.7313 8.13464 11.4563C7.98502 11.2883 7.79888 11.0278 7.72107 10.8777C7.5883 10.6218 7.57395 10.6212 7.49024 10.8686C7.44113 11.0137 7.27486 11.274 7.12078 11.4472C6.85044 11.7508 6.72022 11.7619 3.41259 11.7619C0.173692 11.7619 -0.0145159 11.7771 0.00074814 12.0362C0.0159161 12.2935 0.23518 12.3153 3.56825 12.3888L7.11963 12.4671L7.32036 12.8175C7.43076 13.0102 7.53473 13.2397 7.55134 13.3275C7.56958 13.4239 7.64206 13.3379 7.73456 13.11C7.99904 12.4585 8.18907 12.3905 9.74835 12.3897L11.2251 12.3888L11.4932 12.97L11.7613 13.5513L11.6506 13.844C11.5298 14.1633 11.4758 14.1468 11.0783 13.6695C10.7606 13.288 10.0738 12.8785 9.44763 12.6973C8.93096 12.548 8.33748 12.7332 8.16742 13.0971C7.9676 13.5247 8.06734 14.5005 8.31963 14.5863C8.52699 14.6568 8.5458 14.5961 8.44577 14.181C8.28075 13.496 8.33681 13.3454 8.85008 13.0938C9.14537 12.9492 10.0212 13.2916 10.4921 13.7359C10.8618 14.0846 11.0975 14.4449 11.3758 15.0859C11.4417 15.2379 11.5033 15.168 11.7231 14.6917C11.8699 14.3733 12.0015 14.1127 12.0154 14.1127C12.0293 14.1127 12.1522 14.3687 12.2886 14.6817C12.5096 15.189 12.5473 15.228 12.6361 15.0422C12.9493 14.3864 13.2602 13.9422 13.6073 13.6544C14.3721 13.0202 15.3676 12.903 15.5798 13.422C15.659 13.6157 15.6591 13.6533 15.5819 14.1048L15.5001 14.5828H15.6327C15.7837 14.5828 15.9167 14.3023 15.93 13.9559C15.9631 13.092 15.8848 12.9116 15.3885 12.708C14.7434 12.4433 13.3077 13.0816 12.7776 13.8688L12.5316 14.2341L12.3969 13.8832L12.2622 13.5325L12.5223 12.9606L12.7823 12.3888L14.295 12.3889L15.8076 12.3891L16.1074 12.852L16.4071 13.315L16.6573 12.8911L16.9075 12.4671L20.4496 12.425C23.9441 12.3834 23.9916 12.3787 23.9916 12.0724C23.9916 11.7658 23.9489 11.7619 20.5912 11.7619C17.311 11.7619 17.1807 11.7508 16.9105 11.4472C16.7564 11.274 16.5901 11.0137 16.541 10.8686C16.4573 10.6212 16.443 10.6218 16.3102 10.8777C16.2324 11.0278 16.0462 11.2883 15.8966 11.4563C15.6514 11.7318 15.4877 11.7619 14.2375 11.7619H12.8503L12.5622 11.123C12.3305 10.6092 12.2848 10.4416 12.3292 10.2671C12.4305 9.86813 12.5541 9.86876 12.9199 10.2696C13.7525 11.182 15.2559 11.6392 15.7066 11.1167C16.0271 10.7451 16.0301 9.75435 15.7117 9.4113C15.6157 9.30786 15.5272 9.25599 15.5149 9.29595C15.5026 9.33592 15.5311 9.59325 15.5781 9.86782C15.6602 10.3467 15.6602 10.3756 15.5779 10.5766C15.2171 11.4582 13.448 10.6141 12.7867 9.24486L12.5603 8.77612L12.2792 9.33357L11.9982 9.89101L11.7332 9.33764C11.5875 9.0333 11.4618 8.78553 11.4539 8.78709C11.4461 8.78866 11.3443 9.00086 11.2279 9.2585ZM12.4027 12.059C12.3901 12.1255 12.2945 12.3731 12.1901 12.6091L12.0004 13.0384L11.792 12.5455C11.6774 12.2744 11.5873 12.0139 11.5917 11.9664C11.5962 11.9191 11.6916 11.682 11.8037 11.4397L12.0076 10.999L12.2166 11.4685C12.3316 11.7268 12.4153 11.9926 12.4027 12.059Z" fill="white"/>
<path fill-rule="evenodd" clip-rule="evenodd" d="M22.8574 0.245824C22.7834 0.429305 22.5461 0.742109 22.3301 0.940732C21.9834 1.25981 21.9375 1.33907 21.9375 1.61872C21.9375 1.86441 21.9623 1.93548 22.048 1.93548C22.1984 1.93548 22.6133 2.42004 22.8095 2.82465L22.9702 3.15628L23.1606 2.75371C23.266 2.53067 23.4961 2.2431 23.6762 2.10914C23.955 1.90179 24.0014 1.82526 24.0015 1.57221C24.0016 1.32829 23.9495 1.22584 23.701 0.981794C23.3775 0.664079 23.1666 0.370646 23.0593 0.0888085C23.0032 -0.0587946 22.9698 -0.0328754 22.8574 0.245824Z" fill="white"/>
<path fill-rule="evenodd" clip-rule="evenodd" d="M0.919906 21.0896C0.845865 21.2731 0.608619 21.5859 0.392643 21.7845C0.0459055 22.1036 0 22.1828 0 22.4625C0 22.7082 0.024815 22.7792 0.110478 22.7792C0.260894 22.7792 0.675794 23.2638 0.871981 23.6684L1.03272 24L1.22312 23.5975C1.32852 23.3744 1.55863 23.0869 1.73867 22.9529C2.01751 22.7455 2.06387 22.669 2.064 22.416C2.06413 22.172 2.01204 22.0696 1.76353 21.8255C1.43999 21.5078 1.22913 21.2144 1.12184 20.9326C1.06566 20.785 1.03231 20.8109 0.919906 21.0896Z" fill="white"/>
<path fill-rule="evenodd" clip-rule="evenodd" d="M5.964 1.34221C0.040032 1.38233 0 1.38468 0 1.69546C0 2.0067 0.0368167 2.00826 7.40808 2.00826C11.4825 2.00826 16.8285 1.9614 19.2881 1.90405C23.5824 1.80406 23.76 1.78839 23.76 1.51225C23.76 1.19506 25.3897 1.21057 5.964 1.34221Z" fill="white"/>
<path fill-rule="evenodd" clip-rule="evenodd" d="M6.15541 22.0289C0.231438 22.069 0.191406 22.0713 0.191406 22.3821C0.191406 22.6933 0.228223 22.6949 7.59949 22.6949C11.6739 22.6949 17.0199 22.648 19.4795 22.5907C23.7739 22.4907 23.9514 22.475 23.9514 22.1989C23.9514 21.8817 25.5811 21.8972 6.15541 22.0289Z" fill="white"/>
</svg>
