<svg width="669" height="591" viewBox="0 0 669 591" fill="none" xmlns="http://www.w3.org/2000/svg">
<path fill-rule="evenodd" clip-rule="evenodd" d="M307.974 0.330707C306.874 0.524707 301.024 1.2077 294.974 1.8497C252.271 6.3797 204.293 22.3827 165.815 44.9307C101.782 82.4547 50.4099 142.092 23.5349 210.101C12.0109 239.264 5.41894 265.821 1.26594 299.822C-0.645062 315.463 -0.340061 355.098 1.82694 372.822C9.77194 437.792 34.8329 496.68 75.8759 546.822C83.6689 556.342 103.953 577.363 112.724 585.008L118.474 590.02V473.99V357.96L102.641 357.641C87.0319 357.327 86.7389 357.279 81.9969 354.322C72.6469 348.491 68.6329 335.609 72.9339 325.232C75.2159 319.725 316.66 78.1267 323.722 74.2837C327.456 72.2507 330.013 71.6217 334.537 71.6217C344.512 71.6217 346.718 73.4667 383.156 112.276L415.974 147.23L416.256 135.526L416.537 123.822H453.006H489.474V171.211C489.474 214.901 489.611 218.759 491.224 220.637C492.186 221.758 515.234 244.338 542.441 270.815C569.648 297.293 592.928 320.39 594.175 322.142C601.502 332.44 597.188 348.971 585.594 355.028C580.437 357.722 579.713 357.822 565.36 357.822H550.474V473.921V590.02L556.224 585.008C564.995 577.363 585.279 556.342 593.072 546.822C634.08 496.723 659.183 437.737 667.121 372.822C669.288 355.098 669.593 315.463 667.682 299.822C658.461 224.332 630.032 161.336 581.129 108.029C527.874 49.9757 458.647 13.7987 378.619 2.1977C368.903 0.789704 313.659 -0.670293 307.974 0.330707ZM257.718 270.908C239.648 273.053 223.229 280.747 209.399 293.552C197.553 304.519 189.807 317.971 184.996 335.929C179.994 354.599 182.399 376.581 192.15 401.322C206.118 436.761 238.491 474.044 285.974 509.376C303.018 522.058 332.017 540.822 334.573 540.822C337.165 540.822 367.699 520.772 385.974 507.07C450.865 458.416 486.474 405.001 486.474 356.316C486.474 347.018 485.987 343.44 483.538 334.745C478.248 315.962 472.314 305.674 460.054 294.028C428.465 264.021 378.261 262.361 348.6 290.342C344.909 293.824 340.333 298.956 338.431 301.746C336.53 304.536 334.7 306.819 334.366 306.82C334.031 306.821 332.081 304.298 330.033 301.213C315.692 279.614 286.707 267.467 257.718 270.908Z" fill="#0F4C85"/>
</svg>
